<?xml version="1.0" standalone="no"?>
<!DOCTYPE svg PUBLIC "-//W3C//DTD SVG 20010904//EN"
 "http://www.w3.org/TR/2001/REC-SVG-20010904/DTD/svg10.dtd">
<svg version="1.0" xmlns="http://www.w3.org/2000/svg"
 width="179.000000pt" height="176.000000pt" viewBox="0 0 179.000000 176.000000"
 preserveAspectRatio="xMidYMid meet">

<g transform="translate(0.000000,176.000000) scale(0.100000,-0.100000)"
fill="#000000" stroke="none">
<path d="M477 1525 c-34 -69 -34 -75 1 -43 76 72 161 88 469 88 206 0 244 -2
257 -16 9 -8 16 -22 16 -31 0 -8 -168 -263 -374 -566 -205 -304 -378 -562
-385 -574 -19 -37 -14 -107 12 -139 39 -51 56 -64 82 -64 l25 0 -20 20 c-11
11 -20 29 -20 40 0 11 167 266 371 567 204 302 377 560 385 575 27 53 13 119
-36 163 l-22 20 93 6 c52 3 -113 6 -366 7 l-461 2 -27 -55z"/>
<path d="M1255 259 c-47 -32 -92 -46 -207 -64 l-83 -13 142 -1 143 -1 26 51
c14 28 24 52 22 53 -2 2 -21 -10 -43 -25z"/>
</g>
</svg>
