<?xml version="1.0" standalone="no"?>
<!DOCTYPE svg PUBLIC "-//W3C//DTD SVG 20010904//EN"
 "http://www.w3.org/TR/2001/REC-SVG-20010904/DTD/svg10.dtd">
<svg version="1.0" xmlns="http://www.w3.org/2000/svg"
 width="198.000000pt" height="138.000000pt" viewBox="0 0 198.000000 138.000000"
 preserveAspectRatio="xMidYMid meet">

<g transform="translate(0.000000,138.000000) scale(0.100000,-0.100000)"
fill="#000000" stroke="none">
<path d="M237 1135 c-23 -48 -22 -51 13 -22 26 22 77 39 160 51 14 2 -16 4
-66 5 l-90 1 -17 -35z"/>
<path d="M735 1154 c9 -9 14 -23 11 -31 -3 -8 -118 -179 -254 -381 -137 -202
-254 -377 -260 -389 -20 -36 -14 -79 14 -112 14 -17 35 -31 47 -31 20 1 20 2
4 11 -9 5 -17 17 -17 25 0 8 119 191 265 406 212 313 265 398 265 424 0 39
-42 94 -72 94 -18 0 -18 -1 -3 -16z"/>
<path d="M1116 1138 c-66 -54 -66 -54 -66 -483 0 -245 -4 -393 -10 -405 -6
-11 -23 -26 -38 -34 l-27 -15 45 0 c25 -1 40 3 33 7 -8 5 -4 13 15 26 53 35
65 63 73 165 4 53 11 105 15 115 5 14 4 17 -4 12 -16 -10 -17 547 -1 591 5 17
20 35 32 41 22 11 22 11 -3 11 -15 1 -42 -13 -64 -31z"/>
<path d="M1418 1158 c73 -24 142 -140 142 -238 0 -113 -89 -240 -168 -240 -13
0 -21 -4 -18 -9 3 -5 -1 -11 -9 -15 -23 -9 -49 -70 -41 -99 3 -15 57 -83 119
-152 130 -147 139 -161 112 -181 -18 -14 -18 -14 2 -14 31 0 73 55 73 95 0 37
-1 38 -157 213 -51 57 -93 107 -93 112 0 19 33 40 63 40 42 0 125 40 159 76
61 66 83 166 56 258 -16 55 -101 140 -154 155 -21 6 -57 10 -79 10 l-40 -1 33
-10z"/>
<path d="M1290 660 c-11 -8 -7 -9 15 -4 37 8 45 14 19 14 -10 0 -26 -5 -34
-10z"/>
<path d="M1222 624 c-17 -14 -37 -35 -43 -47 -7 -16 -4 -15 14 6 13 16 37 37
53 48 16 10 25 19 19 19 -5 0 -25 -12 -43 -26z"/>
<path d="M795 280 c-12 -20 -87 -51 -143 -59 l-57 -9 87 -1 88 -1 20 40 c18
35 22 57 5 30z"/>
</g>
</svg>
