<svg width="54.466" height="59.57" viewBox="0 0 54.466 59.57" xmlns="http://www.w3.org/2000/svg"><g id="svgGroup" stroke-linecap="round" fill-rule="evenodd" font-size="9pt" stroke="#000000" stroke-width="1.5mm" fill="#000000" style="stroke:#000000;stroke-width:1.5mm;fill:#000000"><path d="M 23.062 21.24 L 30.582 8.496 Q 28.189 7.666 24.918 7.666 A 21.228 21.228 0 0 0 22.214 7.83 Q 20.783 8.014 19.552 8.405 A 12.641 12.641 0 0 0 19.205 8.521 A 14.16 14.16 0 0 0 14.859 10.938 A 11.798 11.798 0 0 0 11.934 14.417 A 10.883 10.883 0 0 0 10.66 19.678 A 13.103 13.103 0 0 0 10.709 20.853 Q 10.815 22.025 11.15 22.751 A 2.622 2.622 0 0 0 11.441 23.242 A 2.344 2.344 0 0 1 10.974 23.894 Q 10.491 24.357 9.767 24.408 A 2.597 2.597 0 0 1 9.586 24.414 A 6.099 6.099 0 0 1 8.619 24.342 Q 7.959 24.236 7.437 23.975 A 5.077 5.077 0 0 1 5.918 22.802 A 5.761 5.761 0 0 1 5.875 22.754 Q 4.312 20.899 4.312 18.555 A 14.029 14.029 0 0 1 4.374 17.19 Q 4.51 15.811 4.94 14.908 A 4.224 4.224 0 0 1 4.947 14.893 A 5.212 5.212 0 0 1 3.85 13.948 A 3.642 3.642 0 0 1 2.945 11.499 Q 2.945 9.424 4.361 8.008 A 7.431 7.431 0 0 1 3.743 7.083 Q 3.466 6.587 3.328 6.116 A 3.237 3.237 0 0 1 3.189 5.2 A 6.326 6.326 0 0 1 3.256 4.253 Q 3.361 3.563 3.629 3.027 Q 4.068 2.149 4.801 1.465 Q 6.363 0 8.365 0 A 6.667 6.667 0 0 1 9.815 0.153 A 5.719 5.719 0 0 1 10.611 0.391 Q 10.479 0.92 10.466 1.848 A 14.739 14.739 0 0 0 10.465 2.051 A 2.549 2.549 0 0 0 10.539 2.695 Q 10.754 3.517 11.595 3.674 A 2.358 2.358 0 0 0 12.027 3.711 A 11.293 11.293 0 0 0 15.769 3.099 A 10.629 10.629 0 0 0 16.568 2.783 A 20.21 20.21 0 0 1 22.159 1.21 A 25.986 25.986 0 0 1 25.699 0.977 A 28.761 28.761 0 0 1 35.465 2.637 A 8.447 8.447 0 0 1 37.731 1.393 A 7.188 7.188 0 0 1 40.152 0.977 Q 43.008 0.977 44.836 2.321 A 6.09 6.09 0 0 1 45.23 2.637 Q 47.232 0.977 49.576 0.977 Q 51.92 0.977 53.238 2.246 A 3.954 3.954 0 0 1 54.439 4.781 Q 54.466 5.047 54.466 5.33 A 6.148 6.148 0 0 1 54.459 5.615 A 3.17 3.17 0 0 1 54.396 6.268 Q 54.309 6.68 54.103 6.993 A 1.791 1.791 0 0 1 53.873 7.275 A 3.081 3.081 0 0 0 52.985 6.892 Q 52.588 6.786 52.118 6.753 A 6.308 6.308 0 0 0 51.676 6.738 A 4.065 4.065 0 0 0 48.989 7.782 Q 48.36 8.316 47.79 9.124 A 11.847 11.847 0 0 0 46.939 10.547 L 41.519 20.752 A 48.954 48.954 0 0 0 41.086 21.639 Q 40.46 22.957 40.276 23.603 A 1.918 1.918 0 0 0 40.201 23.975 Q 40.152 24.658 40.323 25.147 Q 40.494 25.635 40.836 26.172 A 7.676 7.676 0 0 0 42.478 28.102 A 7.223 7.223 0 0 0 42.887 28.418 A 14.241 14.241 0 0 0 33.673 35.054 A 19.496 19.496 0 0 0 33.121 35.986 L 24.283 50.83 A 6.591 6.591 0 0 0 25.947 51.594 Q 27.571 52.103 29.929 52.145 A 24.197 24.197 0 0 0 30.362 52.149 Q 34.439 52.149 36.637 51.148 Q 38.834 50.147 40.396 48.438 Q 43.668 44.775 43.668 39.404 A 10.901 10.901 0 0 0 43.592 38.07 Q 43.424 36.713 42.887 35.84 A 9.912 9.912 0 0 1 43.634 35.327 Q 44.705 34.668 45.474 34.668 A 4.157 4.157 0 0 1 46.888 34.905 A 3.887 3.887 0 0 1 47.354 35.108 A 5.115 5.115 0 0 1 48.713 36.132 A 5.936 5.936 0 0 1 48.892 36.328 Q 50.455 38.184 50.455 40.454 A 8.712 8.712 0 0 1 50.3 42.143 Q 50.066 43.328 49.478 44.238 A 7.345 7.345 0 0 1 50.558 45.048 Q 51.822 46.209 51.822 47.608 A 4.028 4.028 0 0 1 50.953 50.092 A 6.12 6.12 0 0 1 50.064 51.025 A 9.661 9.661 0 0 1 50.748 51.83 Q 51.627 52.997 51.627 53.931 A 6 6 0 0 1 51.524 55.068 A 4.597 4.597 0 0 1 51.187 56.128 Q 50.748 57.08 50.015 57.861 A 6.247 6.247 0 0 1 48.813 58.869 A 4.35 4.35 0 0 1 46.451 59.57 A 3.813 3.813 0 0 1 45.776 59.506 Q 45.449 59.447 45.089 59.334 A 7.735 7.735 0 0 1 44.644 59.18 Q 44.777 58.65 44.789 57.723 A 14.739 14.739 0 0 0 44.791 57.52 Q 44.791 55.859 43.277 55.859 A 5.134 5.134 0 0 0 42.079 56.01 Q 41.547 56.137 40.976 56.374 A 9.507 9.507 0 0 0 40.592 56.543 A 22.431 22.431 0 0 1 38.99 57.219 A 17.586 17.586 0 0 1 37.808 57.617 Q 36.49 58.008 35.074 58.301 A 34.511 34.511 0 0 1 31.658 58.749 A 28.061 28.061 0 0 1 29.459 58.838 Q 24.134 58.838 20.199 57.412 A 18.475 18.475 0 0 1 19.01 56.934 A 8.927 8.927 0 0 1 15.937 58.36 A 8.392 8.392 0 0 1 13.956 58.594 A 7.38 7.38 0 0 1 11.218 58.097 A 6.847 6.847 0 0 1 9.293 56.934 Q 7.502 58.286 5.777 58.537 A 5.43 5.43 0 0 1 4.996 58.594 Q -0.243 58.594 0.012 54.064 A 7.958 7.958 0 0 1 0.015 54.004 A 2.547 2.547 0 0 1 0.239 52.979 A 3.597 3.597 0 0 1 0.601 52.344 Q 1.179 52.729 2.092 52.81 A 5.772 5.772 0 0 0 2.603 52.832 A 3.773 3.773 0 0 0 3.734 52.67 A 3.046 3.046 0 0 0 4.996 51.904 Q 6.344 50.627 7.718 48.525 A 34.282 34.282 0 0 0 8.756 46.826 A 446.175 446.175 0 0 0 10.495 43.826 Q 16.168 33.946 16.178 32.524 A 0.715 0.715 0 0 0 16.178 32.52 A 1.503 1.503 0 0 0 16.191 32.316 Q 16.191 31.324 14.908 30.151 A 42.845 42.845 0 0 0 14.246 29.558 Q 13.324 28.75 12.811 28.42 A 4.64 4.64 0 0 0 12.808 28.418 Q 17.594 26.758 21.207 23.438 A 12.835 12.835 0 0 0 22.102 22.533 Q 22.53 22.052 22.848 21.58 A 6.93 6.93 0 0 0 23.062 21.24 Z M 18.326 44.678 L 36.148 12.158 A 5.281 5.281 0 0 0 33.083 13.423 Q 32.299 14.066 31.586 15.033 A 13.739 13.739 0 0 0 30.728 16.358 L 26.92 22.949 Q 25.406 25.537 24.722 26.465 A 3.901 3.901 0 0 1 23.683 27.364 Q 22.683 27.979 21.081 28.341 A 14.983 14.983 0 0 1 20.719 28.418 A 5.791 5.791 0 0 1 21.338 28.753 Q 22.309 29.364 22.309 30.071 A 1.045 1.045 0 0 1 22.306 30.151 A 9.265 9.265 0 0 1 22.222 30.881 Q 22.164 31.248 22.078 31.565 A 4.987 4.987 0 0 1 22.013 31.787 A 11.649 11.649 0 0 1 21.5 33.106 A 17.114 17.114 0 0 1 21.177 33.839 Q 20.797 34.656 20.216 35.734 A 58.272 58.272 0 0 1 20.133 35.889 L 18.277 39.16 Q 17.36 40.855 17.36 42.297 A 4.132 4.132 0 0 0 17.887 44.336 A 0.712 0.712 0 0 0 18.011 44.515 A 0.554 0.554 0 0 0 18.326 44.678 Z" vector-effect="non-scaling-stroke"/></g></svg>